<svg version="1.2" xmlns="http://www.w3.org/2000/svg" viewBox="0 0 499.93138936535155 649.9108061749571" width="500" height="650">
	<defs>
		<linearGradient id="g1" x2="1" gradientUnits="userSpaceOnUse" gradientTransform="matrix(-222.417,-1.768,1.778,-223.681,322.403,280.349)">
			<stop offset="0" stop-color="#366a96"/>
			<stop offset="1" stop-color="#3679b0"/>
		</linearGradient>
		<linearGradient id="g2" x2="1" gradientUnits="userSpaceOnUse" gradientTransform="matrix(-440.28,0,0,-442.822,400.406,382.655)">
			<stop offset="0" stop-color="#ffc836"/>
			<stop offset="1" stop-color="#ffe873"/>
		</linearGradient>
	</defs>
	<style>
		tspan { white-space:pre } 
		.s0 { fill: #646464 } 
		.s1 { fill: #2e597d } 
		.s2 { fill: url(#g1) } 
		.s3 { fill: url(#g2) } 
		.s4 { fill: #ffffff } 
	</style>
	<g id="g12">
		<g id="g10990">
			<path id="path46" class="s0" d="m113.01 104.08q0.01 15.03-7.08 24.96-7.9 11.23-21.91 11.55-10.56 0.34-21.75-6.6v42.8l-12.07-4.3v-95.01q2.98-3.64 7.62-6.29 10.78-6.28 26.19-6.44l0.17 0.17q14.08-0.17 21.71 11.56 7.12 10.75 7.12 27.6zm-13.88-0.82q0-29.59-16.88-30.42-6.72-0.32-13.1 2.16-5.08 1.81-6.88 3.63v47.09q10.8 6.78 19.16 6.29 17.7-1.16 17.7-28.75z"/>
			<path id="path48" class="s0" d="m186.78 132.17q0 20.16-4.04 27.93-4.06 7.77-15.47 12.39-9.25 3.64-19.99 3.97l-2-7.61q10.92-1.48 15.38-2.97 8.77-2.98 12.07-9.08 2.65-4.97 2.64-19.01v-3.14q-12.38 5.62-25.95 5.61-8.92 0.01-15.7-5.61-7.61-6.12-7.61-15.53v-50.24l12.07-4.13v50.57q0 8.1 5.23 12.48 5.23 4.37 13.54 4.21 8.3-0.17 17.76-6.45v-58.99h12.07z"/>
			<path id="path50" class="s0" d="m233.9 139.93q-2.16 0.18-3.98 0.17-10.24 0.01-15.95-4.88-5.69-4.9-5.69-13.51v-47.55h-8.27v-7.59h8.27v-20.16l12.06-4.3v24.46h13.56v7.59h-13.56v47.22q0 6.79 3.64 9.61 3.14 2.32 9.92 2.66z"/>
			<path id="path52" class="s0" d="m306.98 138.94h-12.07v-46.59q0-7.12-3.31-12.23-3.82-5.78-10.63-5.78-8.3 0-20.76 8.75v55.85h-12.08v-111.37l12.08-3.8v50.73q11.56-8.43 25.29-8.43 9.58 0 15.53 6.44 5.95 6.45 5.95 16.04z"/>
			<path id="path54" class="s0" d="m384.36 101.44q-0.01 16.18-8.27 26.94-9.09 12.05-25.12 12.05-15.88 0-24.8-12.05-8.1-10.76-8.1-26.94 0-15.21 8.76-25.62 9.26-11.06 24.3-11.07 15.04 0.01 24.47 11.07 8.76 10.41 8.76 25.62zm-13.22-0.08q-0.01-11.37-4.31-18.8-5.12-9.05-15.86-9.54-19.84 1.15-19.83 28.42-0.01 12.5 4.14 20.87 5.31 10.69 15.93 10.52 19.93-0.16 19.93-31.47z"/>
			<path id="path56" class="s0" d="m453.56 138.94h-12.07v-49.23q0-8.1-4.88-12.65-4.87-4.55-12.98-4.37-8.6 0.16-16.36 5.61v60.64h-12.07v-62.13q10.42-7.59 19.17-9.91 8.27-2.15 14.56-2.15 4.29 0 8.09 0.83 7.11 1.64 11.57 6.12 4.97 4.94 4.97 11.89z"/>
		</g>
		<path id="text2836" class="s1" d="m100.14 563.68q0 11.87-5.61 19.69-6.26 8.87-17.34 9.13-8.35 0.26-17.21-5.22v33.78l-9.39-3.39 0.13-74.98q2.34-2.87 5.99-4.96 8.48-4.96 20.61-5.09l0.13 0.13q11.08-0.13 17.08 9.13 5.61 8.48 5.61 21.78zm-10.95-0.65q0-23.34-13.44-24-5.34-0.26-10.43 1.7-4.04 1.43-5.48 2.87v37.16q8.61 5.35 15.26 4.96 14.09-0.91 14.09-22.69zm71.16-1.44q0 12.78-6.52 21.26-7.17 9.52-19.82 9.52-12.52 0-19.56-9.52-6.39-8.48-6.39-21.26 0-11.99 6.91-20.21 7.3-8.74 19.17-8.74 11.86 0 19.3 8.74 6.91 8.22 6.91 20.21zm-10.43 0q0-8.99-3.39-14.86-4.05-7.17-12.52-7.57-15.65 0.92-15.65 22.43h0.13q0 9.92 3.26 16.57 4.17 8.47 12.52 8.34 15.65-0.13 15.65-24.91zm93.1-26.86l-15.52 54.77-7.83 2.74-14.99-45.51-12.26 42.77-7.82 2.74-18.39-56.47 8.74-3.13 14.6 44.47 11.61-41.34 8.73-3.13 14.74 44.47 12.52-44.47zm51.4 51.25q-5.48 3.52-9.78 4.83-5.22 1.56-10.57 1.56-9.52 0-15.12-4.82-10.18-8.61-10.04-24 0.13-12.65 5.21-20.86 6.13-9.65 17.74-9.65 21.64 0 22.04 28.56h-34.95q-0.79 11.08 4.17 17.99 4.95 6.78 13.04 6.52 6.78-0.26 16.04-4.69zm-10.04-29.86q0-6.91-2.87-11.74-3.39-5.48-9.26-5.48-11.74 0-13.04 17.09zm56.19-23.22q-1.31 2.61-3.78 7.7-3.65-0.78-5.35-0.78h-0.13q-7.82 0-13.95 5.21v46.17h-9.52v-47.47q5.34-6 13.56-8.87 7.17-2.61 12.78-2.61 3.13 0 6.39 0.65zm51.91 53.08q-5.48 3.52-9.78 4.82-5.22 1.57-10.56 1.57-9.52 0-15.13-4.83-10.17-8.6-10.04-23.99 0.13-12.65 5.22-20.87 6.12-9.65 17.73-9.65 21.65 0 22.04 28.56h-34.95q-0.78 11.09 4.17 18 4.96 6.78 13.04 6.52 6.78-0.26 16.04-4.7zm-10.04-29.86q0-6.91-2.87-11.73-3.39-5.48-9.26-5.48-11.73 0-13.04 17.08zm69.49 26.08q-12.78 9.91-27.38 10.04-10.83 0-17.08-9.78-5.48-8.47-5.48-19.95 0-11.47 5.87-20.21 6.65-9.78 17.73-9.65 8.48 0 17.08 4.17v-33.51l9.13-3.13zm-9.26-1.05v-37.03q-8.34-5.22-14.73-5.22-8.09 0-12.26 8.48-3.39 6.78-3.39 15.78 0 8.61 3.26 15 4.04 8.34 11.87 8.34 7.3 0 15.25-5.35z"/>
		<g id="g8691">
			<path id="path7990" class="s2" d="m177.54 234.11c0-20.71 5.55-31.98 36.22-37.35 20.82-3.65 47.52-4.1 72.42 0 19.67 3.25 36.22 17.9 36.22 37.35v68.34c0 20.05-16.07 36.47-36.22 36.47h-72.42c-24.58 0-45.29 20.95-45.29 44.65v32.79h-24.9c-21.07 0-33.33-15.19-38.48-36.44-6.95-28.55-6.66-45.56 0-72.91 5.77-23.85 24.2-36.43 45.26-36.43h27.19 72.44v-9.13h-72.44z"/>
			<path id="path7992" class="s3" d="m322.4 452.82c0 20.72-17.97 31.21-36.22 36.44-27.45 7.89-49.48 6.68-72.42 0-19.16-5.58-36.22-16.98-36.22-36.44v-68.34c0-19.67 16.39-36.47 36.22-36.47h72.42c24.12 0 45.29-20.84 45.29-45.56v-31.87h27.16c21.09 0 31.02 15.67 36.22 36.43 7.25 28.85 7.57 50.42 0 72.91-7.32 21.84-15.16 36.44-36.22 36.44h-36.23-72.42v9.12h72.42z"/>
			<path id="path7994" class="s4" d="m195.65 229.58c0-7.57 6.06-13.69 13.57-13.69 7.49 0 13.58 6.12 13.58 13.69 0 7.54-6.09 13.65-13.58 13.65-7.51 0-13.57-6.11-13.57-13.65z"/>
			<path id="path7996" class="s4" d="m277.14 457.36c0-7.54 6.09-13.66 13.57-13.66 7.52 0 13.58 6.12 13.58 13.66 0 7.56-6.06 13.68-13.58 13.68-7.48 0-13.57-6.12-13.57-13.68z"/>
		</g>
	</g>
</svg>